<svg id="Icons" height="512" viewBox="0 0 74 74" width="512" xmlns="http://www.w3.org/2000/svg"><path d="m26.028 39.11a1 1 0 0 1 -.992-.886 14.841 14.841 0 0 1 -.1-1.684 13.274 13.274 0 0 1 .076-1.47 1.013 1.013 0 0 1 1.1-.884 1 1 0 0 1 .888 1.104 11.266 11.266 0 0 0 -.064 1.25 12.691 12.691 0 0 0 .087 1.46 1 1 0 0 1 -.879 1.108 1.141 1.141 0 0 1 -.116.002z"/><path d="m39.51 51.1a14.545 14.545 0 0 1 -9.718-3.715 13.384 13.384 0 0 1 -1.157-1.157 1 1 0 1 1 1.49-1.335 11.14 11.14 0 0 0 .991.992 12.565 12.565 0 1 0 .011-18.71 12.163 12.163 0 0 0 -1.714 1.872 1 1 0 0 1 -1.606-1.193 14.18 14.18 0 0 1 1.993-2.174 14.562 14.562 0 1 1 9.71 25.42z"/><path d="m30.46 27.43a1 1 0 0 1 -.763-.354l-9.5-11.2a1 1 0 1 1 1.525-1.292l9.5 11.2a1 1 0 0 1 -.762 1.647z"/><path d="m16.894 17.667a7.5 7.5 0 1 1 7.5-7.5 7.5 7.5 0 0 1 -7.5 7.5zm0-12.993a5.5 5.5 0 1 0 5.5 5.5 5.5 5.5 0 0 0 -5.5-5.5z"/><path d="m56.165 54.662a1 1 0 0 1 -.678-.265l-7.616-7.019a1 1 0 1 1 1.356-1.47l7.616 7.018a1 1 0 0 1 -.678 1.736z"/><path d="m59.1 63.591a5.95 5.95 0 1 1 5.95-5.95 5.957 5.957 0 0 1 -5.95 5.95zm0-9.9a3.95 3.95 0 1 0 3.95 3.95 3.955 3.955 0 0 0 -3.95-3.95z"/><path d="m17.315 61.967a1 1 0 0 1 -.736-1.676l13.144-14.324a1 1 0 1 1 1.477 1.352l-13.148 14.325a1 1 0 0 1 -.737.323z"/><path d="m12.371 72.674a7.5 7.5 0 1 1 7.5-7.5 7.5 7.5 0 0 1 -7.5 7.5zm0-12.992a5.5 5.5 0 1 0 5.5 5.5 5.5 5.5 0 0 0 -5.5-5.5z"/><path d="m48.473 27.369a1 1 0 0 1 -.736-1.676l8.23-8.969a1 1 0 0 1 1.474 1.352l-8.231 8.969a1 1 0 0 1 -.737.324z"/><path d="m61.65 20.679a7.5 7.5 0 1 1 7.5-7.5 7.5 7.5 0 0 1 -7.5 7.5zm0-12.992a5.5 5.5 0 1 0 5.5 5.5 5.5 5.5 0 0 0 -5.5-5.5z"/></svg>